# xmcd
#
# Track frame offsets:
#  150
#  11921
#  25417
#  39187
#  51704
#  62810
#  75755
#  90874
#  102184
#  118527
#  130420
#  144291
#  160729
#  172780
#  185538
#  197777
#  210903
#  224185
#  235373
#
# Disc length: 3278 seconds
#
# Revision: 0
# Processed by: cddbd v1.5.1PL2 Copyright (c) Steve Scherf et al.
# Submitted via: Collectorz.com_Music_Collector 6.11
#
DISCID=000ccc13
DTITLE=Various Artist - Classic Songs - Country Style [CD5)
DYEAR=2004
DGENRE=Country
TTITLE0=Marty Robbins (1925-1982) - Among My Souvenirs
TTITLE1=Mickey Gilley - True Love Ways
TTITLE2=Jim Ed Brown - Helen Cornelius - You Don't Bring Me Flowers
TTITLE3=Willie Nelson (1933-    ) - Everybody's Talkin'
TTITLE4=Slim Whitman - Edelweiss
TTITLE5=Slim Whitman - Stranger On The Shore
TTITLE6=Glen Campbell (1936-    ) - Bobbie Gentry - Scarborough Fair
TTITLE7=Jim Reeves (1923-1964) - Moon Riner
TTITLE8=Slim Whitman - Somewhere My Love
TTITLE9=Tammy Wynette (1942-1998) - David Houston - Something Stupid
TTITLE10=Patsy Cline (1932-1963) - You Belong To Me
TTITLE11=Brenda Lee - Georgia On My Mind
TTITLE12=Skeeter Davis - Don't Forget To Remember
TTITLE13=Brenda Lee - I Left My Heart In San Francisco
TTITLE14=Jim Reeves (1923-1964) - Blue Skies
TTITLE15=Charlie Rich - Spanish Eyes
TTITLE16=Sonny James (1929-    ) - Endlessly
TTITLE17=Waylon Jennings - The Twelfth Of Never
TTITLE18=Willie Nelson (1933-    ) - Blue Eyes Crying In The Rain
EXTD=
EXTT0=
EXTT1=
EXTT2=
EXTT3=
EXTT4=
EXTT5=
EXTT6=
EXTT7=
EXTT8=
EXTT9=
EXTT10=
EXTT11=
EXTT12=
EXTT13=
EXTT14=
EXTT15=
EXTT16=
EXTT17=
EXTT18=
PLAYORDER=
